Coordinates
version=1
nRows=25
nColumns=34
inDegrees=no

Units are S.I. units (second, meters, Newtons, ...)
If the header above contains a line with 'inDegrees', this indicates whether rotational values are in degrees (yes) or radians (no).

endheader
time	pelvis_tilt	pelvis_list	pelvis_rotation	pelvis_tx	pelvis_ty	pelvis_tz	hip_flexion_r	hip_adduction_r	hip_rotation_r	knee_angle_r	ankle_angle_r	subtalar_angle_r	mtp_angle_r	hip_flexion_l	hip_adduction_l	hip_rotation_l	knee_angle_l	ankle_angle_l	subtalar_angle_l	mtp_angle_l	lumbar_extension	lumbar_bending	lumbar_rotation	arm_flex_r	arm_add_r	arm_rot_r	elbow_flex_r	pro_sup_r	arm_flex_l	arm_add_l	arm_rot_l	elbow_flex_l	pro_sup_l
3.22	-0.43131	0.0105298	0.0156839	-0.302699	0.814998	-0.593106	1.06723	-0.229541	-0.140005	0.845991	0.34735	0.111402	-0.14152	1.05924	-0.19635	-0.181049	0.837625	0.328527	0.0955503	-0.14152	-0.260202	-0.0112113	-0.0214956	0.799194	-0.282293	-0.0385938	1.9324	1.36715	0.863421	-0.322448	0.0169466	1.72774	1.45609
3.23	-0.442001	0.0085399	0.0161806	-0.30646	0.809775	-0.593224	1.0953	-0.232206	-0.140207	0.866463	0.353095	0.11273	-0.14152	1.08825	-0.202328	-0.181584	0.858734	0.333959	0.101775	-0.14152	-0.263045	-0.00846788	-0.0211888	0.824788	-0.284146	-0.0340303	1.93826	1.36831	0.889086	-0.324532	0.0217558	1.73458	1.46071
3.24	-0.452018	0.00650633	0.0164876	-0.310134	0.804465	-0.593336	1.12288	-0.234808	-0.140096	0.887402	0.359182	0.114034	-0.14152	1.1167	-0.208553	-0.182037	0.880239	0.339758	0.108135	-0.14152	-0.266391	-0.00565762	-0.0207447	0.850396	-0.285765	-0.0291935	1.94373	1.36934	0.914509	-0.326304	0.0260567	1.74167	1.4643
3.25	-0.46125	0.0045453	0.0166784	-0.313707	0.799075	-0.593444	1.14987	-0.237515	-0.139725	0.908812	0.365739	0.115487	-0.14152	1.14443	-0.214845	-0.18236	0.902079	0.345929	0.1145	-0.14152	-0.270332	-0.00292928	-0.0202626	0.875926	-0.287061	-0.0241631	1.94874	1.37012	0.939702	-0.327776	0.0299212	1.74889	1.46676
3.26	-0.469633	0.002737	0.0168071	-0.31717	0.793612	-0.593549	1.17615	-0.240433	-0.139149	0.930661	0.372889	0.11721	-0.14152	1.17133	-0.221063	-0.18248	0.924207	0.352488	0.12073	-0.14152	-0.274911	-0.000404761	-0.0197992	0.901261	-0.287964	-0.0190467	1.95325	1.37057	0.964682	-0.328952	0.0334685	1.75611	1.46813
3.27	-0.477159	0.00111047	0.0168932	-0.320514	0.788078	-0.593645	1.20168	-0.243575	-0.138409	0.952888	0.38072	0.119236	-0.14152	1.19741	-0.227136	-0.182301	0.946603	0.359461	0.126683	-0.14152	-0.280105	0.00184097	-0.0193599	0.926269	-0.288435	-0.0139527	1.95725	1.37068	0.989457	-0.329835	0.0368342	1.76317	1.46852
3.28	-0.483883	-0.000353771	0.0169163	-0.323734	0.782469	-0.593726	1.22646	-0.246848	-0.137517	0.975415	0.389258	0.121482	-0.14152	1.22276	-0.233067	-0.181714	0.969278	0.36688	0.132228	-0.14152	-0.28582	0.0037837	-0.0189011	0.950817	-0.288463	-0.00896534	1.96079	1.37048	1.014	-0.330437	0.0401476	1.76994	1.46812
3.29	-0.489908	-0.00170206	0.0168316	-0.326831	0.776778	-0.593782	1.25058	-0.250096	-0.136444	0.99817	0.398447	0.123771	-0.14152	1.24751	-0.238896	-0.180612	0.992261	0.374764	0.137223	-0.14152	-0.29191	0.00543505	-0.0183511	0.974777	-0.288077	-0.00413659	1.96394	1.37	1.03826	-0.330778	0.0435243	1.77629	1.46707
3.3	-0.495353	-0.0029789	0.0165978	-0.329804	0.770996	-0.593807	1.27414	-0.253151	-0.135119	1.0211	0.40814	0.125856	-0.14152	1.27185	-0.244647	-0.178895	1.01558	0.383108	0.141513	-0.14152	-0.298211	0.00682045	-0.0176451	0.998046	-0.287339	0.000508892	1.9668	1.3693	1.06219	-0.330882	0.0470588	1.78214	1.46556
3.31	-0.500332	-0.00420802	0.0162011	-0.332657	0.765116	-0.593798	1.29731	-0.255883	-0.133431	1.04419	0.418117	0.127471	-0.14152	1.29592	-0.25029	-0.176486	1.03925	0.391858	0.144941	-0.14152	-0.304579	0.00796467	-0.016758	1.02055	-0.286332	0.00496846	1.96944	1.36844	1.08572	-0.330775	0.0508118	1.78743	1.46374
3.32	-0.504932	-0.00538958	0.0156623	-0.335394	0.759132	-0.593761	1.32022	-0.258216	-0.131253	1.06743	0.428122	0.128373	-0.14152	1.31983	-0.255738	-0.173335	1.06324	0.400915	0.147384	-0.14152	-0.310911	0.00888975	-0.0157196	1.04228	-0.285138	0.00925619	1.97197	1.36748	1.10881	-0.330497	0.0547979	1.79216	1.4618
3.33	-0.509206	-0.00650827	0.0150328	-0.338018	0.753044	-0.593703	1.34297	-0.260131	-0.12847	1.09083	0.437906	0.128394	-0.14152	1.34364	-0.260866	-0.169431	1.08751	0.410137	0.148809	-0.14152	-0.317161	0.00962065	-0.0146107	1.06323	-0.283815	0.0133975	1.97443	1.36647	1.13141	-0.330104	0.0589868	1.79635	1.45992
3.34	-0.513166	-0.00754653	0.0143839	-0.340534	0.746859	-0.593636	1.36561	-0.261663	-0.12501	1.1144	0.447265	0.127477	-0.14152	1.36731	-0.265538	-0.164797	1.112	0.419361	0.149282	-0.14152	-0.323341	0.0101941	-0.0135455	1.08347	-0.282396	0.0174265	1.97689	1.36547	1.1535	-0.329676	0.0633148	1.80007	1.45827
3.35	-0.516772	-0.00850248	0.0137927	-0.342943	0.740586	-0.593573	1.38812	-0.262887	-0.120872	1.13814	0.45606	0.125677	-0.14152	1.3908	-0.269633	-0.159473	1.13662	0.428429	0.148955	-0.14152	-0.329529	0.0106701	-0.0126414	1.10307	-0.280898	0.0213838	1.97936	1.36452	1.17503	-0.329301	0.0677021	1.80345	1.45699
3.36	-0.519938	-0.00940786	0.0133283	-0.345243	0.734242	-0.593524	1.41036	-0.263887	-0.116135	1.16205	0.464229	0.123129	-0.14152	1.41396	-0.273071	-0.153498	1.1613	0.437213	0.148025	-0.14152	-0.335871	0.0111413	-0.0119872	1.12215	-0.279328	0.025308	1.98188	1.36365	1.19598	-0.329056	0.0720685	1.8066	1.4561
3.37	-0.522539	-0.0103369	0.0130431	-0.347433	0.727849	-0.593498	1.43215	-0.264737	-0.11095	1.18608	0.471782	0.119997	-0.14152	1.43666	-0.275828	-0.146888	1.186	0.445628	0.146687	-0.14152	-0.342554	0.0117359	-0.0116213	1.14082	-0.277696	0.0292237	1.98443	1.36292	1.21637	-0.328989	0.0763444	1.80964	1.45555
3.38	-0.524443	-0.0113993	0.0129679	-0.349508	0.721428	-0.593499	1.45323	-0.26548	-0.105507	1.21018	0.47878	0.116417	-0.14152	1.45876	-0.277927	-0.139637	1.21067	0.453635	0.145102	-0.14152	-0.349768	0.0126058	-0.0115266	1.1592	-0.27602	0.033132	1.98702	1.36237	1.23618	-0.329108	0.0804767	1.81263	1.45522
3.39	-0.525546	-0.0127157	0.0131092	-0.351467	0.714999	-0.593528	1.47339	-0.266105	-0.0999875	1.23431	0.485306	0.112461	-0.14152	1.48016	-0.279433	-0.131722	1.2353	0.461228	0.143377	-0.14152	-0.357658	0.0138989	-0.0116382	1.17739	-0.274327	0.0370101	1.9896	1.36214	1.25541	-0.329386	0.0844326	1.81562	1.45493
3.4	-0.525809	-0.0143858	0.0134466	-0.353308	0.708575	-0.593582	1.4925	-0.266549	-0.0945122	1.25837	0.491429	0.108129	-0.14152	1.50086	-0.280429	-0.123128	1.25987	0.468417	0.14156	-0.14152	-0.366281	0.0157233	-0.0118629	1.19545	-0.272646	0.0408191	1.99216	1.36236	1.27406	-0.329775	0.0882001	1.8186	1.45456
3.41	-0.525267	-0.0164608	0.0139328	-0.355035	0.702162	-0.593653	1.51055	-0.26669	-0.0891131	1.28233	0.497186	0.103355	-0.14152	1.52089	-0.281003	-0.113865	1.28439	0.475212	0.139651	-0.14152	-0.375588	0.0181187	-0.0121007	1.21338	-0.270997	0.0445129	1.99463	1.3631	1.2921	-0.330231	0.0917829	1.82152	1.45398
3.42	-0.524024	-0.0189327	0.014495	-0.356653	0.695761	-0.593732	1.52761	-0.266368	-0.0837339	1.30611	0.502568	0.0980407	-0.14152	1.54036	-0.281242	-0.103982	1.30883	0.481612	0.137614	-0.14152	-0.385446	0.0210426	-0.0122615	1.23115	-0.269383	0.048046	1.997	1.36414	1.30952	-0.330723	0.09519	1.82431	1.45323
3.43	-0.522222	-0.0217345	0.0150427	-0.358169	0.689369	-0.593806	1.54385	-0.265402	-0.0782534	1.32968	0.507532	0.092079	-0.14152	1.55937	-0.28122	-0.0935638	1.33317	0.487616	0.135389	-0.14152	-0.395675	0.024373	-0.0122778	1.2487	-0.26779	0.051371	1.99923	1.3651	1.32631	-0.331237	0.0984291	1.82689	1.45235
3.44	-0.520007	-0.0247464	0.0154862	-0.359592	0.682983	-0.593863	1.55948	-0.263628	-0.0725146	1.353	0.512022	0.0853825	-0.14152	1.57801	-0.280998	-0.0827356	1.35738	0.493224	0.132907	-0.14152	-0.406095	0.0279199	-0.0121203	1.2659	-0.266191	0.0544329	2.00134	1.3655	1.34248	-0.331769	0.101504	1.8292	1.45139
3.45	-0.517507	-0.0278043	0.0157622	-0.36093	0.676605	-0.593892	1.57467	-0.260946	-0.0663508	1.37605	0.515989	0.077901	-0.14152	1.59631	-0.280599	-0.0716658	1.38139	0.498446	0.130107	-0.14152	-0.416559	0.0314488	-0.0118144	1.28266	-0.264552	0.0571701	2.00331	1.36486	1.35811	-0.33232	0.104418	1.83115	1.45033
3.46	-0.514813	-0.0307178	0.015856	-0.362191	0.67024	-0.593889	1.58961	-0.257353	-0.0596115	1.39882	0.519416	0.0696391	-0.14152	1.61424	-0.280002	-0.0605596	1.40513	0.503303	0.126954	-0.14152	-0.426969	0.0347125	-0.0114504	1.29886	-0.262837	0.0595247	2.00516	1.36288	1.37328	-0.332898	0.10718	1.8327	1.44908
